<svg width="60" height="60" viewBox="0 0 60 60" fill="none" xmlns="http://www.w3.org/2000/svg">
<mask id="path-1-inside-1_58_593" fill="white">
<path d="M0 0H60V60H0V0Z"/>
</mask>
<path d="M59 0V60H61V0H59ZM1 60V0H-1V60H1Z" fill="#E2E8F0" mask="url(#path-1-inside-1_58_593)"/>
<path fill-rule="evenodd" clip-rule="evenodd" d="M17.5212 21.0712C17.5212 20.5975 17.7094 20.1432 18.0443 19.8083C18.3793 19.4733 18.8336 19.2852 19.3072 19.2852H40.7352C41.2015 19.2962 41.6449 19.4891 41.9707 19.8228C42.2966 20.1564 42.479 20.6043 42.479 21.0707C42.479 21.537 42.2966 21.9849 41.9707 22.3185C41.6449 22.6522 41.2015 22.8451 40.7352 22.8562H19.3072C18.8337 22.8562 18.3796 22.6681 18.0447 22.3334C17.7098 21.9987 17.5215 21.5447 17.5212 21.0712ZM17.5212 30.0002C17.5212 29.5265 17.7094 29.0722 18.0443 28.7373C18.3793 28.4023 18.8336 28.2142 19.3072 28.2142H40.7352C41.2015 28.2252 41.6449 28.4181 41.9707 28.7518C42.2966 29.0854 42.479 29.5333 42.479 29.9997C42.479 30.466 42.2966 30.9139 41.9707 31.2475C41.6449 31.5812 41.2015 31.7741 40.7352 31.7852H19.3072C18.8336 31.7852 18.3793 31.597 18.0443 31.262C17.7094 30.9271 17.5212 30.4728 17.5212 29.9992V30.0002ZM17.5212 38.9292C17.5212 38.4555 17.7094 38.0012 18.0443 37.6663C18.3793 37.3313 18.8336 37.1432 19.3072 37.1432H30.0212C30.4875 37.1542 30.9309 37.3472 31.2567 37.6808C31.5826 38.0144 31.765 38.4623 31.765 38.9287C31.765 39.395 31.5826 39.8429 31.2567 40.1765C30.9309 40.5102 30.4875 40.7031 30.0212 40.7142H19.3072C18.8336 40.7142 18.3793 40.526 18.0443 40.191C17.7094 39.8561 17.5212 39.4018 17.5212 38.9282V38.9292Z" fill="#28264B"/>
</svg>
