<svg width="18" height="19" viewBox="0 0 18 19" fill="none" xmlns="http://www.w3.org/2000/svg">
<path d="M16.7301 17.0872L11.6721 12.0292L16.7301 17.0872ZM13.3571 7.81421C13.3571 9.17921 12.8838 10.502 12.0178 11.5571C11.1518 12.6122 9.94681 13.3345 8.60804 13.6007C7.26926 13.867 5.87958 13.6608 4.67578 13.0173C3.47198 12.3739 2.52853 11.3329 2.0062 10.0718C1.48386 8.81069 1.41495 7.40749 1.81122 6.10128C2.20748 4.79507 3.04439 3.66667 4.17936 2.90834C5.31432 2.15001 6.67712 1.80868 8.03554 1.94249C9.39395 2.07631 10.6639 2.677 11.6291 3.64221C12.177 4.19009 12.6116 4.84052 12.9081 5.55635C13.2046 6.27218 13.3571 7.03941 13.3571 7.81421V7.81421Z" stroke="#64748B" stroke-width="2" stroke-linecap="round" stroke-linejoin="round"/>
</svg>
